<?xml version="1.0" ?><!DOCTYPE svg  PUBLIC '-//W3C//DTD SVG 1.1//EN'  'http://www.w3.org/Graphics/SVG/1.1/DTD/svg11.dtd'><svg enable-background="new 0 0 800 800" height="800px" id="Layer_1" version="1.1" viewBox="0 0 800 800" width="800px" xml:space="preserve" xmlns="http://www.w3.org/2000/svg" xmlns:xlink="http://www.w3.org/1999/xlink"><g><path d="M603.529,391.282c-10.596,0-21.275,1.051-31.893,3.128c-32.594-50.581-84.551-85.047-142.908-95.874   c-34.623-69.744-106.412-117.908-189.414-117.908c-116.653,0-211.548,94.9-211.548,211.548c0,52.804,19.582,101.03,51.684,138.139   c-16.674,20.904-26.705,47.327-26.705,76.082c0,67.433,54.864,122.291,122.291,122.291c34.487,0,66.841-14.419,89.812-39.341   c36.339,25.486,79.854,39.341,124.436,39.341c40.742,0,80.031-11.313,114.466-32.845c28.902,21.271,63.818,32.845,99.779,32.845   c93.023,0,168.705-75.68,168.705-168.703C772.234,466.963,696.553,391.282,603.529,391.282z M65.255,392.177   c0-95.978,78.086-174.059,174.059-174.059c60.063,0,113.117,30.591,144.415,77.009c-107.908,2.709-196.057,83.232-209.383,188.981   c-24.938,0.141-48.107,7.803-67.406,20.795C81.009,474.505,65.255,435.174,65.255,392.177z M603.529,691.199   c-31.715,0-62.416-11.605-86.422-32.678c-3.525-3.091-7.939-4.655-12.363-4.655c-3.83,0-7.668,1.166-10.941,3.525   c-30.754,22.118-66.895,33.808-104.519,33.808c-42.218,0-83.285-15.036-115.618-42.333c-4.08-3.457-9.435-4.994-14.78-4.23   c-5.304,0.769-10.021,3.771-12.971,8.248c-15.785,23.99-42.281,38.315-70.879,38.315c-46.757,0-84.801-38.044-84.801-84.802   c0-18.604,6.088-35.769,16.287-49.77c7.594-10.413,17.437-19.064,28.88-25.146c11.841-6.286,25.314-9.885,39.634-9.885   c4.069,0,8.473,0.393,13.473,1.197c5.303,0.827,10.722-0.606,14.864-4.017c4.153-3.404,6.642-8.426,6.852-13.792   c3.629-96.799,82.28-172.625,179.059-172.625c4.519,0,9.006,0.209,13.472,0.549c14.299,1.078,28.242,3.907,41.621,8.238   c42.658,13.823,79.404,43.332,101.852,83.771c4.227,7.609,13.086,11.313,21.506,8.938c11.904-3.373,23.945-5.083,35.795-5.083   c72.355,0,131.215,58.859,131.215,131.213S675.885,691.199,603.529,691.199z" fill="#4D4D4D"/><path d="M424.984,214.545c4.801,0,9.592-1.83,13.252-5.491l60.701-60.701c7.322-7.317,7.322-19.189,0-26.506   c-7.322-7.322-19.184-7.322-26.506,0l-60.701,60.701c-7.322,7.317-7.322,19.189,0,26.506   C415.393,212.715,420.184,214.545,424.984,214.545z" fill="#4D4D4D"/><path d="M333.76,157.443c2.259,0.9,4.603,1.329,6.904,1.329c7.458,0,14.519-4.482,17.427-11.831l18.263-45.978   c3.828-9.618-0.879-20.518-10.502-24.341c-9.603-3.802-20.523,0.889-24.331,10.502l-18.263,45.978   C319.43,142.72,324.137,153.62,333.76,157.443z" fill="#4D4D4D"/><path d="M244.806,138.902c0.104,0,0.22,0,0.324-0.005c10.345-0.172,18.609-8.703,18.42-19.053l-0.492-30.084   c-0.178-10.355-9.111-18.949-19.059-18.426c-10.345,0.173-18.609,8.703-18.42,19.054l0.492,30.083   C226.25,130.717,234.597,138.902,244.806,138.902z" fill="#4D4D4D"/></g></svg>